<svg xmlns="http://www.w3.org/2000/svg" viewBox="0 0 921 350"><defs><style>.cls-1{fill:none;stroke:#d4d6d4;stroke-miterlimit:10;}</style></defs><g id="Camada_2" data-name="Camada 2"><g id="Camada_1-2" data-name="Camada 1"><line class="cls-1" x1="0.5" x2="0.5" y2="350"/><line class="cls-1" x1="20.5" x2="20.5" y2="350"/><line class="cls-1" x1="40.5" x2="40.5" y2="350"/><line class="cls-1" x1="60.5" x2="60.5" y2="350"/><line class="cls-1" x1="80.5" x2="80.5" y2="350"/><line class="cls-1" x1="100.5" x2="100.5" y2="350"/><line class="cls-1" x1="120.5" x2="120.5" y2="350"/><line class="cls-1" x1="140.5" x2="140.5" y2="350"/><line class="cls-1" x1="160.5" x2="160.5" y2="350"/><line class="cls-1" x1="180.5" x2="180.5" y2="350"/><line class="cls-1" x1="200.5" x2="200.5" y2="350"/><line class="cls-1" x1="220.5" x2="220.5" y2="350"/><line class="cls-1" x1="240.5" x2="240.5" y2="350"/><line class="cls-1" x1="260.5" x2="260.5" y2="350"/><line class="cls-1" x1="280.5" x2="280.5" y2="350"/><line class="cls-1" x1="300.5" x2="300.5" y2="350"/><line class="cls-1" x1="320.5" x2="320.5" y2="350"/><line class="cls-1" x1="340.5" x2="340.5" y2="350"/><line class="cls-1" x1="360.5" x2="360.5" y2="350"/><line class="cls-1" x1="380.5" x2="380.5" y2="350"/><line class="cls-1" x1="400.5" x2="400.5" y2="350"/><line class="cls-1" x1="420.5" x2="420.5" y2="350"/><line class="cls-1" x1="440.5" x2="440.5" y2="350"/><line class="cls-1" x1="460.5" x2="460.5" y2="350"/><line class="cls-1" x1="480.5" x2="480.5" y2="350"/><line class="cls-1" x1="500.5" x2="500.5" y2="350"/><line class="cls-1" x1="520.5" x2="520.5" y2="350"/><line class="cls-1" x1="540.5" x2="540.5" y2="350"/><line class="cls-1" x1="560.5" x2="560.5" y2="350"/><line class="cls-1" x1="580.5" x2="580.5" y2="350"/><line class="cls-1" x1="600.5" x2="600.5" y2="350"/><line class="cls-1" x1="620.5" x2="620.5" y2="350"/><line class="cls-1" x1="640.5" x2="640.5" y2="350"/><line class="cls-1" x1="660.5" x2="660.5" y2="350"/><line class="cls-1" x1="680.5" x2="680.5" y2="350"/><line class="cls-1" x1="700.5" x2="700.5" y2="350"/><line class="cls-1" x1="720.5" x2="720.5" y2="350"/><line class="cls-1" x1="740.5" x2="740.5" y2="350"/><line class="cls-1" x1="760.5" x2="760.5" y2="350"/><line class="cls-1" x1="780.5" x2="780.5" y2="350"/><line class="cls-1" x1="800.5" x2="800.5" y2="350"/><line class="cls-1" x1="820.5" x2="820.5" y2="350"/><line class="cls-1" x1="840.5" x2="840.5" y2="350"/><line class="cls-1" x1="860.5" x2="860.5" y2="350"/><line class="cls-1" x1="880.5" x2="880.5" y2="350"/><line class="cls-1" x1="900.5" x2="900.5" y2="350"/><line class="cls-1" x1="920.5" x2="920.5" y2="350"/></g></g></svg>