<svg xmlns="http://www.w3.org/2000/svg" width="1163.39" height="764.16" viewBox="0 0 1163.39 764.16"><defs><style>.a{fill:#d4d6d4;}.b{fill:none;stroke:#d4d6d4;stroke-miterlimit:10;}</style></defs><path class="a" d="M18,.06v112.5H90.13v17.5H.35V.06Z"/><path class="a" d="M191,88.53H143.39l-11.1,41.53H113.84L149,.06h36.51l35.2,130H202.31ZM186.31,71l-14.5-53.45h-9.22L148.29,71Z"/><path class="a" d="M336.13.06v130H246.35V.06H264v112.5h54.59V.06Z"/><line class="b" x1="0.5" y1="161.06" x2="0.5" y2="604.06"/><line class="b" x1="22.82" y1="161.06" x2="22.82" y2="604.06"/><line class="b" x1="45.13" y1="161.06" x2="45.13" y2="604.06"/><line class="b" x1="67.45" y1="161.06" x2="67.45" y2="604.06"/><line class="b" x1="89.76" y1="161.06" x2="89.76" y2="604.06"/><line class="b" x1="112.08" y1="161.06" x2="112.08" y2="604.06"/><line class="b" x1="134.39" y1="161.06" x2="134.39" y2="604.06"/><line class="b" x1="156.71" y1="161.06" x2="156.71" y2="604.06"/><line class="b" x1="179.02" y1="161.06" x2="179.02" y2="604.06"/><line class="b" x1="201.34" y1="161.06" x2="201.34" y2="604.06"/><line class="b" x1="223.65" y1="161.06" x2="223.65" y2="604.06"/><line class="b" x1="245.97" y1="161.06" x2="245.97" y2="604.06"/><line class="b" x1="268.28" y1="161.06" x2="268.28" y2="604.06"/><line class="b" x1="290.6" y1="161.06" x2="290.6" y2="604.06"/><line class="b" x1="312.91" y1="161.06" x2="312.91" y2="604.06"/><line class="b" x1="335.23" y1="161.06" x2="335.23" y2="604.06"/><line class="b" x1="357.54" y1="161.06" x2="357.54" y2="604.06"/><line class="b" x1="379.86" y1="161.06" x2="379.86" y2="604.06"/><line class="b" x1="402.17" y1="161.06" x2="402.17" y2="604.06"/><line class="b" x1="424.49" y1="161.06" x2="424.49" y2="604.06"/><line class="b" x1="446.8" y1="161.06" x2="446.8" y2="604.06"/><line class="b" x1="469.12" y1="161.06" x2="469.12" y2="604.06"/><line class="b" x1="491.43" y1="161.06" x2="491.43" y2="604.06"/><line class="b" x1="513.75" y1="161.06" x2="513.75" y2="604.06"/><line class="b" x1="536.07" y1="161.06" x2="536.07" y2="604.06"/><line class="b" x1="558.38" y1="161.06" x2="558.38" y2="604.06"/><line class="b" x1="580.7" y1="161.06" x2="580.7" y2="604.06"/><line class="b" x1="603.01" y1="161.06" x2="603.01" y2="604.06"/><line class="b" x1="625.33" y1="161.06" x2="625.33" y2="604.06"/><line class="b" x1="647.64" y1="161.06" x2="647.64" y2="604.06"/><line class="b" x1="669.96" y1="161.06" x2="669.96" y2="604.06"/><line class="b" x1="692.27" y1="161.06" x2="692.27" y2="604.06"/><line class="b" x1="714.59" y1="161.06" x2="714.59" y2="604.06"/><line class="b" x1="736.9" y1="161.06" x2="736.9" y2="604.06"/><line class="b" x1="759.22" y1="161.06" x2="759.22" y2="604.06"/><line class="b" x1="781.53" y1="161.06" x2="781.53" y2="604.06"/><line class="b" x1="803.85" y1="161.06" x2="803.85" y2="604.06"/><line class="b" x1="826.16" y1="161.06" x2="826.16" y2="604.06"/><line class="b" x1="848.48" y1="161.06" x2="848.48" y2="604.06"/><line class="b" x1="870.79" y1="161.06" x2="870.79" y2="604.06"/><line class="b" x1="893.11" y1="161.06" x2="893.11" y2="604.06"/><line class="b" x1="915.42" y1="161.06" x2="915.42" y2="604.06"/><line class="b" x1="937.74" y1="161.06" x2="937.74" y2="604.06"/><line class="b" x1="960.05" y1="161.06" x2="960.05" y2="604.06"/><line class="b" x1="982.37" y1="161.06" x2="982.37" y2="604.06"/><line class="b" x1="1004.68" y1="161.06" x2="1004.68" y2="604.06"/><line class="b" x1="1027" y1="161.06" x2="1027" y2="604.06"/><path class="a" d="M1088.89,130h-17.5V0h42.09a32.88,32.88,0,0,1,13.41,2.79,34.5,34.5,0,0,1,18.34,18.81,35.69,35.69,0,0,1,2.7,13.79,34.84,34.84,0,0,1-3.25,15.08A36.63,36.63,0,0,1,1136,62.21h11.36l.55,67.79h-17.5l-.56-59h-41Zm0-76.55h24.59a16.9,16.9,0,0,0,6.89-1.39,17.3,17.3,0,0,0,5.49-3.82A18.76,18.76,0,0,0,1131,35.39a17.9,17.9,0,0,0-5-12.76,16.5,16.5,0,0,0-12.48-5.31h-24.59Z"/><path class="a" d="M1133,249.43h-47.12l-11,41.53h-18.25l34.83-130h36.13l34.83,130h-18.25Zm-4.65-17.51L1114,178.47h-9.13l-14.15,53.45Z"/><path class="a" d="M953.28,722.08H907.22l-10.74,40.6H878.63l34-127.09H948l34,127.09H964.21ZM948.73,705l-14-52.25h-8.92L912,705Z"/><path class="a" d="M1048,635.59v17.12h-15.29v92.86H1048v17.11h-47.52V745.57h15.29V652.71h-15.29V635.59Z"/><path class="a" d="M1093.48,667.64a11.92,11.92,0,0,0,1.73,6.55,16.82,16.82,0,0,0,4.37,4.65,29.15,29.15,0,0,0,5.91,3.27,63.21,63.21,0,0,0,6.38,2.28c2.66.85,5.43,1.67,8.28,2.46l8.83,2.46a92.37,92.37,0,0,1,16.48,6.28,34.4,34.4,0,0,1,13.2,11.56q4.72,6.38,4.73,17.66v1.64q-1.46,19.84-12.92,28.77t-30.23,8.92a65.23,65.23,0,0,1-19.57-2.82,43.44,43.44,0,0,1-15.48-8.38,38,38,0,0,1-10.1-13.84,46.8,46.8,0,0,1-3.64-19v-2.55h16.93q1.27,13.83,8.47,21.57t21.57,7.74a60.9,60.9,0,0,0,9.92-.82,27.27,27.27,0,0,0,8.93-3,18.17,18.17,0,0,0,6.37-5.92,17,17,0,0,0,2.46-9.56,20.35,20.35,0,0,0-1.37-7.83,17.6,17.6,0,0,0-3.82-5.73,24.76,24.76,0,0,0-5.83-4.28,60.77,60.77,0,0,0-7.19-3.28q-3.83-1.45-8-2.64c-2.8-.79-5.71-1.48-8.74-2.09a82.77,82.77,0,0,1-16.3-5.37A37.53,37.53,0,0,1,1081.28,686q-5.1-6.19-5.1-17.85a32.71,32.71,0,0,1,3.37-15.47,31.34,31.34,0,0,1,8.92-10.56,36.28,36.28,0,0,1,12.93-6.1,60,60,0,0,1,15.2-1.91q18.39,0,30,9.46t12.57,28.59h-16.94q-1.82-10.92-8-15.93t-17.11-5a48.4,48.4,0,0,0-8.2.73,24.43,24.43,0,0,0-7.64,2.64,16.41,16.41,0,0,0-5.65,5.1A13.71,13.71,0,0,0,1093.48,667.64Z"/><path class="a" d="M.3,764.16v-130H42.39A32.88,32.88,0,0,1,55.8,637a34.48,34.48,0,0,1,18.34,18.82,36.39,36.39,0,0,1,0,27.56,36.21,36.21,0,0,1-7.35,11.36,34.44,34.44,0,0,1-11,7.64,32.88,32.88,0,0,1-13.41,2.79H17.81v59Zm42.09-76.55a16.9,16.9,0,0,0,6.89-1.39,17.3,17.3,0,0,0,5.5-3.82,18.48,18.48,0,0,0,3.72-5.77,18.29,18.29,0,0,0,1.4-7.08,17.63,17.63,0,0,0-1.4-7,20.12,20.12,0,0,0-3.72-5.77,16.5,16.5,0,0,0-5.5-3.91,16.91,16.91,0,0,0-6.89-1.4H17.81v36.13Z"/></svg>